<svg xmlns="http://www.w3.org/2000/svg" xmlns:xlink="http://www.w3.org/1999/xlink" width="375" height="600.217" viewBox="0 0 375 600.217">
  <defs>
    <linearGradient id="linear-gradient" x1="0.5" x2="0.5" y2="1" gradientUnits="objectBoundingBox">
      <stop offset="0" stop-color="#0277bd"/>
      <stop offset="1" stop-color="#26c6da"/>
    </linearGradient>
  </defs>
  <g id="Group_126" data-name="Group 126" transform="translate(2)">
    <g id="Group_124" data-name="Group 124">
      <g id="Group_132" data-name="Group 132">
        <path id="Path_4" data-name="Path 4" d="M-1014.844,2.141c.036,38.377,0,389.483,0,389.483s7.76,1.3,33.882-7.2C-954.007,374-918.05,358.074-887.1,363.142c50.327,8.24,40.749,62,82.387,118.462S-639.7,468.894-639.844,588.68s0-586.538,0-586.538Z" transform="translate(1012.844 -2.141)" fill="url(#linear-gradient)"/>
        <g id="fall" transform="translate(103 324)">
          <path id="Path_5" data-name="Path 5" d="M393,157.958l-83.214,32.854L291.581,198,252.2,184.271l-33.609-11.716-2.792-.972-4.091-10.364-16.266-41.2-8.165-20.684-2.455-6.217-1.776-4.5-3.958-10.025-6.408-16.23,14-5.525,13.368-5.279,9.609-3.793L330.638,0Z" transform="translate(-130.906)" fill="#26c6da" opacity="0.252"/>
          <path id="Path_6" data-name="Path 6" d="M64.324,476.742a3.9,3.9,0,0,1,1.65,7.62c-2.1.456-7.683-2.325-7.683-2.325S62.219,477.2,64.324,476.742Z" transform="translate(-58.29 -371.205)" fill="#26c6da"/>
          <path id="Path_7" data-name="Path 7" d="M82.4,803.471a3.9,3.9,0,0,1,5.992,4.989c-1.378,1.655-7.486,2.9-7.486,2.9S81.021,805.125,82.4,803.471Z" transform="translate(-75.434 -617.896)" fill="#26c6da"/>
          <path id="Path_8" data-name="Path 8" d="M634.1,248.281c-6.28-10.611-18.7-11.106-18.7-11.106s-12.107-1.548-19.874,14.613c-7.239,15.064-17.23,29.608-1.608,33.134l2.822-8.782,1.747,9.436a61.118,61.118,0,0,0,6.684.114c16.729-.54,32.662.158,32.149-5.845C636.631,271.865,640.141,258.491,634.1,248.281Z" transform="translate(-458.065 -189.63)" fill="#2f2e41"/>
          <path id="Path_9" data-name="Path 9" d="M679.4,363.1a59.621,59.621,0,0,1,4.343,16.83l17.373-1.086c-3.994-5.66-5.32-12.156-3.8-19.545Z" transform="translate(-529.146 -282.244)" fill="#ffb8b8"/>
          <path id="Path_10" data-name="Path 10" d="M679.4,363.1a59.621,59.621,0,0,1,4.343,16.83l17.373-1.086c-3.994-5.66-5.32-12.156-3.8-19.545Z" transform="translate(-529.146 -282.244)" opacity="0.2"/>
          <path id="Path_11" data-name="Path 11" d="M328.272,751.748s-8.992,4.816-4.429,8.928,10.59-5.443,10.59-5.443Z" transform="translate(-258.622 -579.751)" fill="#ffb8b8"/>
          <path id="Path_12" data-name="Path 12" d="M559.67,617.2l-.14,6.58-.3,14.217-.252,12.062-18.206,7.187L501.39,643.519l2.591-14.387,2.093-11.617.934-5.2,47.234-6.515Z" transform="translate(-380.096 -459.248)" fill="#2f2e41"/>
          <path id="Path_13" data-name="Path 13" d="M632.636,657.966l-.141,6.58c-16.711-.429-42.613-4.463-53.455-6.265l.934-5.2,47.234-6.515Z" transform="translate(-453.063 -500.013)" fill="#3f3d56"/>
          <circle id="Ellipse_10" data-name="Ellipse 10" cx="13.573" cy="13.573" r="13.573" transform="translate(145.098 58.328)" fill="#ffb8b8"/>
          <path id="Path_14" data-name="Path 14" d="M612.648,474.367s1.629,14.659-8.144,13.573l-1.629-14.659-8.687-8.687-24.431-.543-17.916,16.83s-.543-17.373,1.629-19,7.058-5.429,7.058-5.429v-2.715l-14.659-29.86s8.687-17.916,15.745-18.459l9.23-.543s3.257-1.629,3.257-2.172-.543-4.886,2.172-3.8c0,0,.244-5.57,3.105-3.871,0,0,9.007,7.058,18.15.309,0,0,4.262-.782,3.719,1.39s0,3.8,1.086,3.8,5.972,1.629,5.972,2.715c0,.233.353,2.481.907,5.863v.005c2.014,12.33,6.694,39.736,6.694,39.736S620.792,455.907,612.648,474.367Z" transform="translate(-427.917 -309.084)" fill="#26c6da"/>
          <path id="Path_15" data-name="Path 15" d="M382.94,504.056l-3.8,2.715L344.393,551.29l-18.459,14.659s10.315-1.629,8.144,7.058L397.6,536.631Z" transform="translate(-261.187 -391.979)" fill="#26c6da"/>
          <path id="Path_16" data-name="Path 16" d="M686.2,407.592v.005c-.722,4.246-24.252,3.361-27.509,3.361a15.166,15.166,0,0,1-9.23-2.715c-3.257-2.172-1.629-4.886-1.629-4.886s2.774-2.113,2.774-2.655-.543-4.886,2.172-3.8c0,0,.244-5.57,3.105-3.871,0,0,9.491,7.542,18.633.793,0,0,4.262-.782,3.719,1.39s0,3.8,1.086,3.8,5.972,1.629,5.972,2.715C685.29,401.962,685.643,404.21,686.2,407.592Z" transform="translate(-504.902 -307.568)" fill="#3f3d56"/>
          <path id="Path_17" data-name="Path 17" d="M765.239,351.57s-4.343-9.23-8.687-4.886,4.886,10.858,4.886,10.858Z" transform="translate(-586.752 -271.797)" fill="#ffb8b8"/>
          <path id="Path_18" data-name="Path 18" d="M768.58,361.547s-6.707,8.476-8.783,9.124c0,0,6.068,23.994,13.669,30.509l4.343,22.259s18.459-7.6,14.116-20.088l-.13-.372a123.169,123.169,0,0,0-14.881-29.333Z" transform="translate(-590.093 -283.945)" fill="#26c6da"/>
          <path id="Path_19" data-name="Path 19" d="M723,424.7l13.356,36.754-4.886-22.26Z" transform="translate(-548.093 -321.957)" opacity="0.2"/>
          <path id="Path_20" data-name="Path 20" d="M613.613,218.067l-12.275-6.43-16.951,2.63-3.507,15.49,8.73-.336,2.439-5.691v5.6l4.028-.155,2.338-9.06,1.461,9.645,14.321-.292Z" transform="translate(-440.357 -160.439)" fill="#2f2e41"/>
          <path id="Path_21" data-name="Path 21" d="M287.652,412.583c-8.438-4.7-13.691-11.126-15.613-19.088-1.427-5.911-1.017-12.563,1.219-19.771a52.952,52.952,0,0,1,7.364-14.874c17.088-24.188,18.631-39.949,16.915-48.912-1.881-9.827-7.991-13.909-8.052-13.949l.264-.406c.063.041,6.334,4.217,8.26,14.244,1.11,5.78.588,12.372-1.552,19.591-2.664,8.984-7.858,18.98-15.439,29.711a52.472,52.472,0,0,0-7.3,14.738c-3.667,11.822-4.186,28.061,14.168,38.293Z" transform="translate(-219.699 -233.939)" fill="#2f2e41"/>
          <path id="Path_22" data-name="Path 22" d="M257.066,464.178c-6.652-3.708-6.467-9.585-5.14-13.862a18.793,18.793,0,0,1,2.614-5.28c5.987-8.474,6.528-13.979,5.927-17.1a7.557,7.557,0,0,0-2.765-4.8l.264-.406a7.924,7.924,0,0,1,2.976,5.116c.9,4.681-1.122,10.56-6.007,17.475a18.306,18.306,0,0,0-2.547,5.144c-1.274,4.106-1.455,9.746,4.914,13.3Z" transform="translate(-204.524 -330.323)" fill="#2f2e41"/>
          <path id="Path_23" data-name="Path 23" d="M386.4,242.178l-.236-.423c6.369-3.55,6.187-9.19,4.914-13.3a18.308,18.308,0,0,0-2.547-5.144c-4.885-6.915-6.906-12.794-6.007-17.475a7.924,7.924,0,0,1,2.976-5.116l.264.405A7.6,7.6,0,0,0,383,205.951c-.594,3.124-.047,8.624,5.931,17.085a18.8,18.8,0,0,1,2.614,5.28C392.868,232.593,393.054,238.47,386.4,242.178Z" transform="translate(-303.931 -162.028)" fill="#2f2e41"/>
          <path id="Path_24" data-name="Path 24" d="M416.116,225.865a7.257,7.257,0,1,1-12.156-7.931c2.19-3.357,13.216-6.975,13.216-6.975S418.306,222.509,416.116,225.865Z" transform="translate(-319.442 -169.787)" fill="#26c6da"/>
          <path id="Path_25" data-name="Path 25" d="M405.116,132.865a7.257,7.257,0,1,1-12.157-7.931c2.19-3.357,13.216-6.975,13.216-6.975S407.306,129.509,405.116,132.865Z" transform="translate(-311.103 -99.285)" fill="#26c6da"/>
          <path id="Path_26" data-name="Path 26" d="M375.015,473.678a7.5,7.5,0,0,1-3.237-14.269c3.653-1.741,14.609.807,15.074.917l.294.069-.131.272c-.208.43-5.133,10.543-8.786,12.283h0A7.454,7.454,0,0,1,375.015,473.678Zm.61-14.392a9.064,9.064,0,0,0-3.639.559,7.016,7.016,0,1,0,6.034,12.667c3.178-1.514,7.6-10.131,8.424-11.784A58.854,58.854,0,0,0,375.625,459.286Z" transform="translate(-292.7 -357.672)" fill="#2f2e41"/>
          <path id="Path_27" data-name="Path 27" d="M291.847,234.275A7.257,7.257,0,0,1,282.068,245c-2.962-2.7-4.763-14.165-4.763-14.165S288.886,231.575,291.847,234.275Z" transform="translate(-224.322 -184.855)" fill="#26c6da"/>
          <path id="Path_28" data-name="Path 28" d="M221.847,360.275A7.257,7.257,0,0,1,212.068,371c-2.962-2.7-4.763-14.165-4.763-14.165S218.886,357.575,221.847,360.275Z" transform="translate(-171.256 -280.374)" fill="#26c6da"/>
          <path id="Path_29" data-name="Path 29" d="M322.264,362.895c-2.422,0-7.054-2.294-7.267-2.4l-.27-.135.19-.234c.163-.2,4.007-4.911,6.17-5.379h0a4.14,4.14,0,1,1,1.752,8.093A2.746,2.746,0,0,1,322.264,362.895Zm-6.775-2.7c1.141.545,5.51,2.549,7.248,2.172a3.656,3.656,0,0,0-1.547-7.147C319.451,355.6,316.3,359.228,315.489,360.2Z" transform="translate(-252.692 -278.719)" fill="#2f2e41"/>
          <path id="Path_30" data-name="Path 30" d="M236.96,789.387a3.9,3.9,0,0,1,6.786,3.84c-1.06,1.874-6.849,4.187-6.849,4.187S235.9,791.26,236.96,789.387Z" transform="translate(-193.367 -606.784)" fill="#26c6da"/>
          <path id="Path_31" data-name="Path 31" d="M169.592,598.108a35.8,35.8,0,0,1-4.985-.43l-.3-.048.112-.28c.1-.24,2.369-5.879,4.3-6.968h0a4.14,4.14,0,0,1,4.075,7.208A7.255,7.255,0,0,1,169.592,598.108Zm-4.6-.862c1.251.181,6.018.8,7.566-.077a3.657,3.657,0,1,0-3.6-6.366h0C167.406,591.679,165.477,596.081,164.987,597.247Z" transform="translate(-138.661 -457.015)" fill="#2f2e41"/>
        </g>
      </g>
    </g>
  </g>
</svg>
